<svg xmlns="http://www.w3.org/2000/svg" width="18" height="18" viewBox="0 0 18 18">
  <defs>
    <radialGradient id="a50aa6a9-2137-42dd-8cb7-42249e92af6a" cx="1211.822" cy="2809.012" r="46.051" gradientTransform="translate(-172.842 -414.488) scale(0.15)" gradientUnits="userSpaceOnUse">
      <stop offset="0.183" stop-color="#a67af4" />
      <stop offset="1" stop-color="#773adc" />
    </radialGradient>
    <linearGradient id="b658479f-4241-4ca4-abf3-36b5d543d4d4" x1="5.193" y1="8.885" x2="5.168" y2="5.668" gradientUnits="userSpaceOnUse">
      <stop offset="0" stop-color="#ccc" />
      <stop offset="1" stop-color="#fcfcfc" />
    </linearGradient>
    <linearGradient id="b913467a-ac6b-4f3f-a80d-73dd1d5b01e2" x1="9.855" y1="12.104" x2="9.855" y2="9.219" gradientUnits="userSpaceOnUse">
      <stop offset="0" stop-color="#ccc" />
      <stop offset="1" stop-color="#fcfcfc" />
    </linearGradient>
    <linearGradient id="aebd585d-a4b5-427c-9d97-5761ba9b921e" x1="13.143" y1="8.616" x2="13.143" y2="5.552" gradientUnits="userSpaceOnUse">
      <stop offset="0" stop-color="#ccc" />
      <stop offset="1" stop-color="#fcfcfc" />
    </linearGradient>
  </defs>
  <g id="fa7afc0c-2f8b-4336-ac44-e008b422964e">
    <path id="e0c1d061-8ddc-4955-81a9-c7cec3633adc" d="M13.166,12.325A6.908,6.908,0,0,1,4.7,1.408l.07-.054a6.908,6.908,0,0,1,8.4,10.971" fill="url(#a50aa6a9-2137-42dd-8cb7-42249e92af6a)" />
    <path d="M9.839,15.735H9.765a.1.1,0,0,1-.1-.1v-1.9a6.908,6.908,0,0,1-1.459,0v1.9a.1.1,0,0,1-.1.1H6.914a.1.1,0,0,0-.073.175L8.86,17.928a.1.1,0,0,0,.145,0l2.019-2.018a.1.1,0,0,0-.073-.175Z" fill="#50e6ff" />
    <g>
      <path d="M6.1,13.165A6.82,6.82,0,0,1,4.681,12.3v1.036a.151.151,0,0,1-.152.151H3.547a.1.1,0,0,1-.1-.1V12.236a.1.1,0,0,0-.171-.071L1.351,14.091a.151.151,0,0,0,0,.214l1.925,1.926a.1.1,0,0,0,.171-.071V15.007a.1.1,0,0,1,.1-.1h2.4a.151.151,0,0,0,.152-.151V13.488h0Z" fill="#9cebff" />
      <path d="M16.649,14.091l-1.925-1.926a.1.1,0,0,0-.171.071v1.153a.1.1,0,0,1-.1.1h-.982a.151.151,0,0,1-.152-.151V12.193c-.052.043-.1.09-.153.132A6.921,6.921,0,0,1,11.9,13.1v.387h0v1.268a.151.151,0,0,0,.152.151h2.4a.1.1,0,0,1,.1.1V16.16a.1.1,0,0,0,.171.071l1.925-1.926A.151.151,0,0,0,16.649,14.091Z" fill="#9cebff" />
    </g>
    <circle cx="5.176" cy="6.607" r="2.22" fill="url(#b658479f-4241-4ca4-abf3-36b5d543d4d4)" />
    <circle cx="9.855" cy="10.662" r="1.443" fill="url(#b913467a-ac6b-4f3f-a80d-73dd1d5b01e2)" />
    <circle cx="13.143" cy="7.084" r="1.532" fill="url(#aebd585d-a4b5-427c-9d97-5761ba9b921e)" />
    <path d="M3.635,8.2a2.212,2.212,0,0,0,1.157.588,14.57,14.57,0,0,0-.881,2.819,6.822,6.822,0,0,1-.45-.526,7.484,7.484,0,0,1-.506-.749A15.337,15.337,0,0,1,3.635,8.2ZM6.8,8.121a2.207,2.207,0,0,1-1.213.667A9.672,9.672,0,0,0,6.762,9.833a10.123,10.123,0,0,0,1.664,1.014,1.413,1.413,0,0,1-.014-.185A1.435,1.435,0,0,1,8.848,9.63,9.732,9.732,0,0,1,6.8,8.121Zm-2.365-3.6a9.665,9.665,0,0,1-.56-2.394,6.827,6.827,0,0,0-.895,1.185,10.742,10.742,0,0,0,.461,1.919A2.231,2.231,0,0,1,4.431,4.518ZM15.455,7.98l-.025-.013-.24-.13-.045-.025-.217-.121-.053-.029-.256-.146a1.448,1.448,0,0,1-.517.751l.3.174.069.039.282.157.028.015c.227.124.461.247.7.37h0a6.816,6.816,0,0,0,.23-.9Zm-4.162,2.593c0,.029,0,.059,0,.089a1.436,1.436,0,0,1-.411,1.007,11.28,11.28,0,0,0,2.773.2,6.863,6.863,0,0,0,.935-1.092,9.94,9.94,0,0,1-1.064.059A9.726,9.726,0,0,1,11.293,10.573ZM12.127,6A21.38,21.38,0,0,1,9.47,3.694,11.011,11.011,0,0,1,14.3,2.519a6.781,6.781,0,0,0-1.208-1.174,11.7,11.7,0,0,0-3.815.9c-.267.113-.525.244-.78.379A13.762,13.762,0,0,1,6.888.258,6.977,6.977,0,0,0,6,.6,14.513,14.513,0,0,0,7.679,3.112,10.079,10.079,0,0,0,5.96,4.532a2.228,2.228,0,0,1,1.095.9A9.624,9.624,0,0,1,8.623,4.176a22.324,22.324,0,0,0,3.006,2.631A1.5,1.5,0,0,1,12.127,6Z" fill="#fff" opacity="0.45" />
  </g>
</svg>