<svg xmlns="http://www.w3.org/2000/svg" width="18" height="18" viewBox="0 0 18 18">
  <defs>
    <linearGradient id="a46a88c4-a811-4a1b-b32d-235596c9521e" x1="5.6" x2="5.6" y2="18" gradientUnits="userSpaceOnUse">
      <stop offset="0" stop-color="#5ea0ef" />
      <stop offset="1" stop-color="#0078d4" />
    </linearGradient>
    <linearGradient id="bfb2e120-bd17-42bf-8926-be551182802e" x1="15.937" x2="15.937" y2="3.496" gradientUnits="userSpaceOnUse">
      <stop offset="0.001" stop-color="#9cebff" />
      <stop offset="0.811" stop-color="#50e6ff" />
    </linearGradient>
    <linearGradient id="acfce58f-57fb-43f4-b3fc-15af0bceb82f" x1="15.937" y1="10.958" x2="15.937" y2="7.463" gradientUnits="userSpaceOnUse">
      <stop offset="0" stop-color="#a67af4" />
      <stop offset="1" stop-color="#b796f9" />
    </linearGradient>
    <linearGradient id="a8f0f945-e052-4a2b-a16f-f05d883e7bc7" x1="15.937" y1="14.504" x2="15.937" y2="18" gradientUnits="userSpaceOnUse">
      <stop offset="0.001" stop-color="#9cebff" />
      <stop offset="1" stop-color="#50e6ff" />
    </linearGradient>
  </defs>
  <g id="f9afd831-cb24-4400-83af-5b547c54449a">
    <polygon points="15.375 2.125 15.375 8.687 6.743 8.687 6.743 9.812 15.375 9.812 15.375 16.375 16.5 16.375 16.5 2.125 15.375 2.125" fill="#ccc" />
    <path d="M10.886.6V17.4a.6.6,0,0,1-.6.6H.915a.6.6,0,0,1-.6-.6V.6a.6.6,0,0,1,.6-.6h9.371A.6.6,0,0,1,10.886.6Z" fill="url(#a46a88c4-a811-4a1b-b32d-235596c9521e)" />
    <path id="e08dbe3d-a54a-4821-83fc-ce9dbcab4f5f" d="M1.71,1.869H3.43a.15.15,0,0,1,.15.15V4.244a.15.15,0,0,1-.15.15H1.71a.15.15,0,0,1-.15-.15V2.019A.15.15,0,0,1,1.71,1.869Zm3.03,0H6.461a.15.15,0,0,1,.15.15V4.244a.15.15,0,0,1-.15.15H4.74a.15.15,0,0,1-.15-.15V2.019A.15.15,0,0,1,4.74,1.869Zm3.031,0h1.72a.15.15,0,0,1,.15.15V4.244a.15.15,0,0,1-.15.15H7.771a.15.15,0,0,1-.15-.15V2.019A.15.15,0,0,1,7.771,1.869ZM1.71,5.909H3.43a.15.15,0,0,1,.15.15V8.284a.15.15,0,0,1-.15.15H1.71a.15.15,0,0,1-.15-.15V6.059A.15.15,0,0,1,1.71,5.909Zm3.03,0H6.461a.15.15,0,0,1,.15.15V8.284a.15.15,0,0,1-.15.15H4.74a.15.15,0,0,1-.15-.15V6.059A.15.15,0,0,1,4.74,5.909Zm3.031,0h1.72a.15.15,0,0,1,.15.15V8.284a.15.15,0,0,1-.15.15H7.771a.15.15,0,0,1-.15-.15V6.059A.15.15,0,0,1,7.771,5.909ZM1.71,9.95H3.43a.15.15,0,0,1,.15.15v2.225a.15.15,0,0,1-.15.15H1.71a.15.15,0,0,1-.15-.15V10.1A.15.15,0,0,1,1.71,9.95Zm3.03,0H6.461a.15.15,0,0,1,.15.15v2.225a.15.15,0,0,1-.15.15H4.74a.15.15,0,0,1-.15-.15V10.1A.15.15,0,0,1,4.74,9.95Zm0,4.04H6.461a.15.15,0,0,1,.15.15v3.295a.15.15,0,0,1-.15.15H4.74a.15.15,0,0,1-.15-.15V14.14A.15.15,0,0,1,4.74,13.99ZM7.771,9.95h1.72a.15.15,0,0,1,.15.15v2.225a.15.15,0,0,1-.15.15H7.771a.15.15,0,0,1-.15-.15V10.1A.15.15,0,0,1,7.771,9.95Z" fill="#f2f2f2" />
    <circle cx="15.937" cy="1.748" r="1.748" fill="url(#bfb2e120-bd17-42bf-8926-be551182802e)" />
    <circle cx="15.937" cy="9.21" r="1.748" fill="url(#acfce58f-57fb-43f4-b3fc-15af0bceb82f)" />
    <circle cx="15.937" cy="16.252" r="1.748" fill="url(#a8f0f945-e052-4a2b-a16f-f05d883e7bc7)" />
  </g>
</svg>