<svg xmlns="http://www.w3.org/2000/svg" width="18" height="18" viewBox="0 0 18 18">
  <defs>
    <linearGradient id="e0e6de9e-93ac-47cb-a5ae-1ebd3c897516" x1="16.306" y1="0.275" x2="16.306" y2="3.664" gradientUnits="userSpaceOnUse">
      <stop offset="0.001" stop-color="#9cebff" />
      <stop offset="0.811" stop-color="#50e6ff" />
    </linearGradient>
    <linearGradient id="beb21539-9104-4c2d-803d-20e99770d60e" x1="16.306" y1="10.898" x2="16.306" y2="7.51" gradientUnits="userSpaceOnUse">
      <stop offset="0" stop-color="#a67af4" />
      <stop offset="1" stop-color="#b796f9" />
    </linearGradient>
    <linearGradient id="acf9d1c2-5c39-4465-a60b-05b31877a627" x1="16.306" y1="14.336" x2="16.306" y2="17.725" gradientUnits="userSpaceOnUse">
      <stop offset="0.001" stop-color="#9cebff" />
      <stop offset="1" stop-color="#50e6ff" />
    </linearGradient>
    <linearGradient id="f0a38379-011a-4f68-a6aa-6c2b1acacde1" x1="6.548" y1="7.333" x2="6.548" y2="18.206" gradientUnits="userSpaceOnUse">
      <stop offset="0.226" stop-color="#5ea0ef" />
      <stop offset="1" stop-color="#0078d4" />
    </linearGradient>
    <linearGradient id="e646bd3a-b24a-46d2-a1bb-764613aaf8c1" x1="6.237" y1="1.504" x2="7.031" y2="11.377" gradientUnits="userSpaceOnUse">
      <stop offset="0.225" stop-color="#5ea0ef" />
      <stop offset="1" stop-color="#0078d4" />
    </linearGradient>
  </defs>
  <g id="b92f7ba0-841c-484a-9f5d-c8876e77f719">
    <polygon points="15.76 2.335 15.76 8.696 7.392 8.696 7.392 9.787 15.76 9.787 15.76 16.149 16.851 16.149 16.851 2.335 15.76 2.335" fill="#ccc" />
    <circle cx="16.306" cy="1.97" r="1.694" fill="url(#e0e6de9e-93ac-47cb-a5ae-1ebd3c897516)" />
    <circle cx="16.306" cy="9.204" r="1.694" fill="url(#beb21539-9104-4c2d-803d-20e99770d60e)" />
    <circle cx="16.306" cy="16.03" r="1.694" fill="url(#acf9d1c2-5c39-4465-a60b-05b31877a627)" />
    <g>
      <path d="M11.927,16.243a1.163,1.163,0,0,0,1.169-1.16,1.085,1.085,0,0,0-.008-.14C12.63,11.283,10.542,8.3,6.558,8.3,2.505,8.3.414,10.826.006,14.952a1.171,1.171,0,0,0,1.045,1.285,1.146,1.146,0,0,0,.117.006Z" fill="url(#f0a38379-011a-4f68-a6aa-6c2b1acacde1)" />
      <path d="M6.558,9.171A3.655,3.655,0,0,1,4.57,8.585l1.968,5.143L8.493,8.62A3.656,3.656,0,0,1,6.558,9.171Z" fill="#fff" opacity="0.8" />
      <circle cx="6.558" cy="5.498" r="3.673" fill="url(#e646bd3a-b24a-46d2-a1bb-764613aaf8c1)" />
    </g>
  </g>
</svg>