<svg xmlns="http://www.w3.org/2000/svg" width="18" height="18" viewBox="0 0 18 18">
  <defs>
    <linearGradient id="b6875a37-db68-4377-adb7-b0d79798ec6c" x1="9.05" y1="3.517" x2="9.05" y2="14.558" gradientUnits="userSpaceOnUse">
      <stop offset="0" stop-color="#5ea0ef" />
      <stop offset="1" stop-color="#0078d4" />
    </linearGradient>
  </defs>
  <g id="af31e474-1dad-4008-bd4d-6416e43d4971">
    <path d="M5.539,5.111,3.148,1.553l.7-.471L6.239,4.64Zm.779,8.512-.681-.5-2.48,3.383.681.5ZM3.969,8.615,1.294,8.553,1.275,9.4l2.675.062ZM15.105,1.563l-.687-.491L11.873,4.63l.686.491Zm0,14.944-2.546-3.473-.68.5,2.545,3.473ZM16.984,9.4l-.019-.844-2.706.062.02.844Z" fill="#83b9f9" />
    <path d="M13.46,5.709A5.53,5.53,0,0,0,5.724,4.63l-.056.043a5.523,5.523,0,0,0,6.77,8.729h0A5.545,5.545,0,0,0,13.46,5.709ZM4.255,8.683a4.825,4.825,0,0,1,.533-1.874H6.126a8.969,8.969,0,0,0-.257,1.874ZM6.867,6.809H8.7V8.683H6.579A8.2,8.2,0,0,1,6.867,6.809Zm2.54,0h1.832a8.2,8.2,0,0,1,.288,1.874H9.407ZM8.7,9.392v1.874H6.867a8.208,8.208,0,0,1-.288-1.874Zm.709,0h2.12a8.208,8.208,0,0,1-.288,1.874H9.407Zm2.83,0h1.608a4.855,4.855,0,0,1-.53,1.874H11.98A9.055,9.055,0,0,0,12.237,9.392Zm0-.709a9.036,9.036,0,0,0-.257-1.874h1.338a4.779,4.779,0,0,1,.529,1.874ZM12.865,6.1h-1.1a5.38,5.38,0,0,0-.778-1.469A4.775,4.775,0,0,1,12.865,6.1ZM11,6.1H9.407V4.3A2.875,2.875,0,0,1,11,6.1ZM8.7,4.3V6.1H7.109A2.876,2.876,0,0,1,8.7,4.3Zm-2.6.936L6.151,5.2a4.835,4.835,0,0,1,.972-.568A5.375,5.375,0,0,0,6.342,6.1h-1.1A4.822,4.822,0,0,1,6.1,5.233ZM4.254,9.392H5.869a8.988,8.988,0,0,0,.257,1.874H4.787A4.8,4.8,0,0,1,4.254,9.392Zm1,2.6-.009-.012h1.1a5.409,5.409,0,0,0,.78,1.471A4.781,4.781,0,0,1,5.249,11.987Zm1.86-.012H8.7v1.8A2.882,2.882,0,0,1,7.109,11.975Zm2.3,1.8v-1.8H11A2.88,2.88,0,0,1,9.407,13.778Zm2.6-.937h0a4.8,4.8,0,0,1-1.021.607,5.383,5.383,0,0,0,.781-1.473h1.1A4.773,4.773,0,0,1,12,12.841Z" fill="url(#b6875a37-db68-4377-adb7-b0d79798ec6c)" />
    <path d="M17.991,9.037A1.294,1.294,0,1,1,16.7,7.743,1.294,1.294,0,0,1,17.991,9.037ZM1.284,7.743A1.294,1.294,0,1,0,2.578,9.037,1.294,1.294,0,0,0,1.284,7.743ZM3.5,15.389a1.294,1.294,0,1,0,1.293,1.294A1.294,1.294,0,0,0,3.5,15.389Zm11.07,0a1.294,1.294,0,1,0,1.294,1.294A1.294,1.294,0,0,0,14.568,15.389ZM3.5.024A1.294,1.294,0,1,0,4.791,1.317,1.293,1.293,0,0,0,3.5.024Zm11.165,0a1.294,1.294,0,1,0,1.294,1.293A1.294,1.294,0,0,0,14.663.024Z" fill="#a67af4" />
  </g>
</svg>