<svg xmlns="http://www.w3.org/2000/svg" width="18" height="18" viewBox="0 0 18 18">
  <defs>
    <linearGradient id="ab5d36c2-133c-4e85-b859-2f7174b2d9e8" x1="9.079" y1="3.994" x2="9.079" y2="0.066" gradientUnits="userSpaceOnUse">
      <stop offset="0" stop-color="#773adc" />
      <stop offset="1" stop-color="#a67af4" />
    </linearGradient>
    <linearGradient id="a1304978-b29b-4e7b-b7ef-ec7276efacd7" x1="9.079" y1="17.934" x2="9.079" y2="14.006" gradientUnits="userSpaceOnUse">
      <stop offset="0" stop-color="#773adc" />
      <stop offset="1" stop-color="#a67af4" />
    </linearGradient>
    <linearGradient id="e9410ba6-440a-42a4-97c8-2cb96f8043ca" x1="16.036" y1="11.06" x2="16.036" y2="7.133" gradientUnits="userSpaceOnUse">
      <stop offset="0" stop-color="#773adc" />
      <stop offset="1" stop-color="#a67af4" />
    </linearGradient>
    <linearGradient id="a604e28b-2f51-4c06-919a-12606367c867" x1="1.964" y1="11.06" x2="1.964" y2="7.133" gradientUnits="userSpaceOnUse">
      <stop offset="0" stop-color="#773adc" />
      <stop offset="1" stop-color="#a67af4" />
    </linearGradient>
  </defs>
  <g id="f5cbbb57-76c7-4ae6-84c8-995ca330df64">
    <path d="M16.4,8.744,9.437,1.677l-.358.353-.355-.356L1.246,9.1l7.836,7.57,7.307-7.218L16.036,9.1ZM9.581,3.257l5.745,5.835L9.581,14.767Zm-1-.02V14.785L2.682,9.092Z" fill="#ccc" />
    <g>
      <circle cx="9.079" cy="2.03" r="1.562" fill="#fff" />
      <path d="M9.079,3.994A1.964,1.964,0,1,1,11.042,2.03,1.966,1.966,0,0,1,9.079,3.994Zm0-3.123A1.16,1.16,0,1,0,10.238,2.03,1.161,1.161,0,0,0,9.079.871Z" fill="url(#ab5d36c2-133c-4e85-b859-2f7174b2d9e8)" />
    </g>
    <g>
      <circle cx="9.079" cy="15.97" r="1.562" fill="#fff" />
      <path d="M9.079,17.934a1.964,1.964,0,1,1,1.963-1.964A1.966,1.966,0,0,1,9.079,17.934Zm0-3.124a1.16,1.16,0,1,0,1.159,1.16A1.161,1.161,0,0,0,9.079,14.81Z" fill="url(#a1304978-b29b-4e7b-b7ef-ec7276efacd7)" />
    </g>
    <g>
      <circle cx="16.036" cy="9.097" r="1.562" fill="#fff" />
      <path d="M16.036,11.06A1.964,1.964,0,1,1,18,9.1,1.966,1.966,0,0,1,16.036,11.06Zm0-3.123A1.16,1.16,0,1,0,17.2,9.1,1.161,1.161,0,0,0,16.036,7.937Z" fill="url(#e9410ba6-440a-42a4-97c8-2cb96f8043ca)" />
    </g>
    <g>
      <circle cx="1.964" cy="9.097" r="1.562" fill="#fff" />
      <path d="M1.964,11.06A1.964,1.964,0,1,1,3.928,9.1,1.966,1.966,0,0,1,1.964,11.06Zm0-3.123A1.16,1.16,0,1,0,3.124,9.1,1.161,1.161,0,0,0,1.964,7.937Z" fill="url(#a604e28b-2f51-4c06-919a-12606367c867)" />
    </g>
  </g>
</svg>